<svg id="Layer_1" data-name="Layer 1" xmlns="http://www.w3.org/2000/svg" xmlns:xlink="http://www.w3.org/1999/xlink" viewBox="0 0 1847.33 1981.01"><defs><style>.cls-1{fill:#28c5ff;}.cls-2{fill:none;}.cls-3{fill:#004791;}.cls-4{fill:url(#linear-gradient);}.cls-5{fill:url(#linear-gradient-2);}.cls-6{fill:#003;}.cls-7{fill:#fe0;}.cls-8{fill:#0387d0;}</style><linearGradient id="linear-gradient" x1="1005.06" y1="345.84" x2="999.03" y2="929.6" gradientTransform="matrix(1, 0, 0, -1, 0, 2002)" gradientUnits="userSpaceOnUse"><stop offset="0" stop-color="#0131b9"/><stop offset="1" stop-color="#66e5fb"/></linearGradient><linearGradient id="linear-gradient-2" x1="1000" y1="1325.97" x2="1000" y2="570.47" gradientUnits="userSpaceOnUse"><stop offset="0" stop-color="#28c5ff"/><stop offset="1" stop-color="#fff"/></linearGradient></defs><polygon class="cls-1" points="350.4 1477.32 375.68 1529.94 354.75 1584.45 412.61 1576.69 457.99 1613.39 468.47 1555.97 517.41 1524.15 466.05 1496.45 450.92 1440.06 408.7 1480.34 350.4 1477.32"/><polygon class="cls-1" points="1496.86 1477.32 1471.59 1529.94 1492.52 1584.45 1434.65 1576.69 1389.27 1613.39 1378.79 1555.97 1329.85 1524.15 1381.21 1496.45 1396.34 1440.06 1438.56 1480.34 1496.86 1477.32"/><circle class="cls-2" cx="923.67" cy="1073.1" r="822.56"/><path class="cls-1" d="M1521.33,1087.5c0,287.93-233.4,521.35-521.33,521.35S478.67,1375.43,478.67,1087.5,712.08,566.19,1000,566.19,1521.33,799.58,1521.33,1087.5Z" transform="translate(-76.33 -14.4)"/><path class="cls-3" d="M367.73,1317.36q26.76-12.48,38.48-16.41a46.83,46.83,0,0,1,46.52,9.73q10.22,9,17.21,24a73.81,73.81,0,0,1,7.28,27.78,47.06,47.06,0,0,1-21.91,42.46q-10.35,6.43-37.77,19.22l-30.37,14.16q-26.76,12.48-38.47,16.41a46.81,46.81,0,0,1-46.53-9.74q-10.2-9-17.21-24a73.86,73.86,0,0,1-7.28-27.78,47.09,47.09,0,0,1,21.92-42.46q10.35-6.43,37.76-19.22Zm-36.8,73.37q-12.39,5.77-15.21,8.76t-.82,7.25a6.93,6.93,0,0,0,5.38,4.23q3.69.63,17.4-5.77l82.9-38.66q15.45-7.21,18.49-10.16t.88-7.56q-2.2-4.71-7-4.08t-20.46,7.94Z" transform="translate(-76.33 -14.4)"/><path class="cls-3" d="M224.34,1219.14l38.09-9.26,7.15,29.4,152.25-37,12,49.49-152.25,37,7.11,29.28-38.09,9.25Z" transform="translate(-76.33 -14.4)"/><path class="cls-3" d="M213.34,1078l39.13-2.3,1.78,30.2,156.41-9.17,3,50.85-156.41,9.17,1.76,30.08-39.13,2.29Z" transform="translate(-76.33 -14.4)"/><path class="cls-3" d="M344.38,936.76q29.24,4.05,41.22,7.11a46.83,46.83,0,0,1,33.78,33.45q3.69,13.09,1.41,29.51a73.77,73.77,0,0,1-9,27.27,47.08,47.08,0,0,1-41.46,23.76q-12.18-.21-42.14-4.37L295,1048.9q-29.24-4.05-41.22-7.12A46.8,46.8,0,0,1,220,1008.34q-3.68-13.08-1.41-29.51a73.88,73.88,0,0,1,9-27.28A47,47,0,0,1,269,927.8q12.18.21,42.14,4.37Zm-70.75,41.63q-13.53-1.87-17.52-.9c-2.65.65-4.2,2.53-4.63,5.65a7,7,0,0,0,2.22,6.47q2.76,2.52,17.75,4.6l90.6,12.54q16.89,2.34,21,1.51c2.77-.55,4.38-2.51,4.85-5.86s-.74-5.84-3.65-7.22-10.06-2.86-21.49-4.44Z" transform="translate(-76.33 -14.4)"/><path class="cls-3" d="M302.06,719.78l181.56,73.53-16.71,41.27L344.31,785l115.92,66.07-11.85,29.27L321.59,849.15l119.75,48.56L424.62,939,243.07,865.45l24.74-61.09q17.47,3.92,40.86,10l48.9,12L277.19,781.2Z" transform="translate(-76.33 -14.4)"/><path class="cls-3" d="M384.26,599.56l175.8,91.18-30.51,42.18L499.42,714.5l-10.68,14.77,26.74,23.11-30.86,42.67L341.12,659.22Zm86.24,95.68q-29.24-16.37-71.21-41.93,41,39.29,60.94,56.13Z" transform="translate(-76.33 -14.4)"/><path class="cls-3" d="M512.4,469.91l132.25,144.5-32.94,30.14-79.66-47.8,60.12,65.69-31.42,28.75L428.5,546.69l31.42-28.75,80.61,45.79L481,498.66Z" transform="translate(-76.33 -14.4)"/><path class="cls-3" d="M690.05,364.2l18,34.85L681.12,412.9l71.76,139.28L707.6,575.51,635.84,436.23,609.06,450l-18-34.84Z" transform="translate(-76.33 -14.4)"/><path class="cls-3" d="M872.38,427q8.1,28.39,10.12,40.58a46.83,46.83,0,0,1-17,44.4q-10.5,8.65-26.44,13.2a74,74,0,0,1-28.58,2.8,47.1,47.1,0,0,1-38.46-28.36q-4.71-11.24-13-40.33l-9.18-32.23q-8.1-28.4-10.12-40.58a46.86,46.86,0,0,1,17-44.41q10.5-8.64,26.44-13.19a74,74,0,0,1,28.58-2.8,47.1,47.1,0,0,1,38.46,28.36q4.71,11.24,13,40.33Zm-66.62-47.94q-3.75-13.15-6.25-16.4c-1.66-2.17-4-2.83-7-2a7,7,0,0,0-5,4.64q-1.19,3.56,3,18.09l25.06,88q4.68,16.41,7.11,19.86t7.32,2.07c3.33-.95,5.05-3,5.14-6.25s-1.45-10.36-4.6-21.45Z" transform="translate(-76.33 -14.4)"/><path class="cls-3" d="M1007.46,300.63l8.39,130.64q1.42,22.23.56,31.31t-7.39,19a44.57,44.57,0,0,1-17.85,15.57q-11.34,5.64-27.16,6.65Q946.51,505,932.73,500t-21-13.8a42,42,0,0,1-9.11-19.12q-1.87-10.25-4-43.33L891.19,308.1,942,304.84l9.42,146.58q.81,12.79,2.43,16.27t5.85,3.2q4.81-.31,6-4.32t.2-18.63l-9.25-144Z" transform="translate(-76.33 -14.4)"/><path class="cls-3" d="M1059.63,303l35.66,5.29q35.67,5.3,47.89,9.92t18.49,17.12q6.28,12.49,2.6,37.26-3.35,22.62-10.13,29.57t-23.53,6.05q14.42,5.93,18.64,12.92t4.7,12.37q.48,5.4-3,28.85l-7.58,51.11-46.79-7,9.55-64.39q2.31-15.56.4-19.63t-12.31-5.62l-13,87.36-50.38-7.47Zm45.46,40.63-6.39,43.08c5.67.84,9.75.66,12.25-.57s4.39-6.09,5.66-14.63l1.58-10.65c.91-6.14.41-10.34-1.5-12.57S1110.92,344.47,1105.09,343.61Z" transform="translate(-76.33 -14.4)"/><path class="cls-3" d="M1302.35,425.69,1258,409.3l5-13.62q3.51-9.53,2.78-12.77t-4.71-4.71a7.69,7.69,0,0,0-7.83,1.12q-3.51,2.7-6.15,9.85-3.4,9.19-2.64,14.78t9.36,16.22q24.9,30.72,28.71,45.92t-6.18,42.22q-7.26,19.63-15.29,27.24t-23.53,9.05q-15.49,1.42-33-5-19.17-7.08-30-19.35t-10.93-25.06q-.06-12.8,7.58-33.45l4.44-12,44.38,16.4-8.26,22.35c-2.55,6.89-3.55,11.55-3,14s2.38,4.23,5.56,5.41a8.28,8.28,0,0,0,8.47-1.13q3.72-2.88,6.44-10.26,6-16.23,3.41-22.86t-16.19-24.94q-13.47-18.39-17.28-25.86t-4.14-18.3q-.33-10.81,5.09-25.46,7.8-21.11,16.79-28.88t23.07-8.83q14.05-1.05,31.08,5.23,18.62,6.87,29.5,17.73t11.77,21.57q.87,10.71-7.22,32.61Z" transform="translate(-76.33 -14.4)"/><path class="cls-3" d="M1449.21,594.88l-19.69,26.52-16.13-1.12-5.76,36.41-36.34-27,1.77-12.24q-27.21-1.51-43.52-13.63-17.1-12.69-17.89-30.9t11.1-34.25q9.52-12.83,20.37-16.07t25.12.26q-7.26-22.71,6.88-41.75,12.18-16.42,30.69-18.21t37.93,12.63q17.49,13,20.26,30.26t-8.47,32.43q-11.83,15.93-33.23,19.19l-4.73,35.31Zm-76.43-5.14,3.08-30.62q-12.19,1.2-17.9,8.88-4.1,5.54-3.88,10c.14,3,1.71,5.57,4.68,7.77Q1363.5,589.29,1372.78,589.74Zm36.28-67.44q13.13-3.67,19-11.55a13.34,13.34,0,0,0,2.67-7.65,7.76,7.76,0,0,0-3.35-6.86,7.16,7.16,0,0,0-6.44-1.47q-3.24.92-6.49,5.28Q1407.65,509.18,1409.06,522.3Z" transform="translate(-76.33 -14.4)"/><path class="cls-3" d="M1653.31,649.17l-30.91,24.11-18.6-23.85-123.53,96.38-31.34-40.16,123.53-96.38-18.53-23.75,30.9-24.11Z" transform="translate(-76.33 -14.4)"/><path class="cls-3" d="M1675.64,684.26l16.21,32.21q16.2,32.21,19.45,44.86t-3.34,25q-6.6,12.33-29,23.58-20.45,10.27-30,8.73t-18.49-15.76q3.45,15.21.17,22.68t-7.41,11q-4.12,3.51-25.32,14.16l-46.15,23.22-21.26-42.26,58.15-29.26q14-7.07,16.29-11c1.48-2.6.66-7-2.5-13.31l-78.9,39.69-22.89-45.5Zm-7,60.56-38.91,19.58q3.86,7.68,7.51,9.69t15.23-3.8l9.62-4.84c5.55-2.78,8.69-5.61,9.42-8.46S1671.24,750.08,1668.6,744.82Z" transform="translate(-76.33 -14.4)"/><path class="cls-3" d="M1767.17,918.94l-181.78,78.58L1572,947.21l33.32-11.7-4.68-17.61L1565.8,924l-13.55-50.89,196-25.32Zm-128.65,6.34q31.15-12.3,77.5-28.68-56.37,7-82,11.73Z" transform="translate(-76.33 -14.4)"/><path class="cls-3" d="M1787.27,1100.37l-197.18-12.62-5.24-77.2,193.44-42.61,3.64,53.6q-80.13,14.81-135.75,22.6,56.76.1,100.87,1.56l36.59,1.07Z" transform="translate(-76.33 -14.4)"/><path class="cls-3" d="M1784.11,1136.92l-9.77,84.37-38.94-4.5,3.91-33.78-36.9-4.26-3.65,31.61-37-4.29,3.66-31.61-42.79-5-4.3,37.14-38.94-4.5,10.15-87.74Z" transform="translate(-76.33 -14.4)"/><path class="cls-3" d="M1752.23,1311.24l-151-41.9-8.28,29.85-37.77-10.49,21.9-78.92,188.75,52.37Z" transform="translate(-76.33 -14.4)"/><path class="cls-3" d="M1631.77,1448.1l20.33-42.72,13.11,6.25q9.18,4.36,12.47,3.93c2.19-.31,3.9-1.72,5.11-4.27a7.71,7.71,0,0,0-.4-7.9c-1.58-2.49-4.67-4.84-9.26-7q-8.85-4.21-14.47-4t-17,7.85q-32.84,22-48.33,24.44t-41.48-10q-18.9-9-25.75-17.68t-6.89-24.25q0-15.55,8-32.39,8.79-18.45,22-28.18t26-8.62q12.73,1.11,32.62,10.57l11.58,5.52L1599,1362.41l-21.53-10.25q-9.93-4.73-13.64-4.28t-5.88,5a8.26,8.26,0,0,0,.36,8.54q2.54,4,9.64,7.34,15.61,7.44,22.45,5.47t26.3-13.88q19.53-11.75,27.32-14.87t18.59-2.47q10.82.66,24.9,7.37,20.34,9.67,27.25,19.34t6.71,23.76q-.23,14.1-8,30.49-8.54,17.91-20.33,27.77t-22.54,9.78q-10.74-.11-31.83-10.14Z" transform="translate(-76.33 -14.4)"/><path class="cls-3" d="M613,1658.14a24.94,24.94,0,0,1-4.71-9.11l7.3-4.27a27.17,27.17,0,0,0,4.08,8.15,29.63,29.63,0,0,0,6.84,6.93c3.23,2.31,6,3.52,8.35,3.63a5.79,5.79,0,0,0,5.34-2.38,4.91,4.91,0,0,0,.87-4,11.52,11.52,0,0,0-2-4.32c-1-1.44-2.53-3.29-4.48-5.57a78.53,78.53,0,0,1-6.35-8.13,16.13,16.13,0,0,1-2.63-7.48,12.25,12.25,0,0,1,2.67-8.39,14.25,14.25,0,0,1,6.66-5.15,16.37,16.37,0,0,1,9.27-.46,29.62,29.62,0,0,1,10.91,5.19,38.43,38.43,0,0,1,7.11,6.61,26.45,26.45,0,0,1,4.6,7.62l-7,4.45a30.93,30.93,0,0,0-4.13-6.82,27.21,27.21,0,0,0-5.41-5.19c-3.19-2.29-5.94-3.45-8.27-3.49a6.13,6.13,0,0,0-5.4,2.62,4.73,4.73,0,0,0-.85,4,11.77,11.77,0,0,0,2,4.29c1,1.44,2.53,3.29,4.48,5.57a72.93,72.93,0,0,1,6.28,8,16.76,16.76,0,0,1,2.66,7.51,12,12,0,0,1-2.61,8.29,14,14,0,0,1-6.63,5.12,16.42,16.42,0,0,1-9.28.41,29.74,29.74,0,0,1-10.94-5.21A40.65,40.65,0,0,1,613,1658.14Z" transform="translate(-76.33 -14.4)"/><path class="cls-3" d="M718,1662.92l8.78,4.65-25,47.31-8.79-4.66Z" transform="translate(-76.33 -14.4)"/><path class="cls-3" d="M825.48,1708.53,807.65,1759l-7.71-2.73-15.76-44-12.07,34.18-9.3-3.29,17.82-50.47,7.72,2.72,15.76,44,12.07-34.18Z" transform="translate(-76.33 -14.4)"/><path class="cls-3" d="M884.32,1774.73a26.15,26.15,0,0,1-8.48-11.38,28.73,28.73,0,0,1,4.71-27.9,26.54,26.54,0,0,1,11.77-8,30,30,0,0,1,15-1.08,30.54,30.54,0,0,1,11.46,4.24,24.45,24.45,0,0,1,8,8.08l-7.33,4.9a18.74,18.74,0,0,0-13.07-8.55,19.91,19.91,0,0,0-10.12.75,17.24,17.24,0,0,0-7.82,5.47,20.47,20.47,0,0,0-3.21,19.15,17.23,17.23,0,0,0,5.6,7.72,20,20,0,0,0,9.33,4,18.62,18.62,0,0,0,15.15-3.89l5.33,7.09a24.42,24.42,0,0,1-10.19,5,30.66,30.66,0,0,1-12.26.27A30.09,30.09,0,0,1,884.32,1774.73Z" transform="translate(-76.33 -14.4)"/><path class="cls-3" d="M1022,1780.09l-.08,8.33-40.14-.35.47-53.53,39.08.35-.08,8.33-29.13-.25-.12,13.91,25.84.23-.07,8.18-25.84-.23-.13,14.76Z" transform="translate(-76.33 -14.4)"/><path class="cls-3" d="M1141.47,1765.24l1.54,8.27-38.78,7.23-1.22-6.54,17.19-23.74a23.54,23.54,0,0,0,3.68-6.79,11.61,11.61,0,0,0,.31-5.23,6.87,6.87,0,0,0-3.54-5.18q-2.84-1.48-7.65-.59-8.05,1.49-11.31,7.78l-7.82-4a20.54,20.54,0,0,1,7.11-8,29.2,29.2,0,0,1,11.26-4.47q8.57-1.61,14.44,1.51a13.58,13.58,0,0,1,7.17,10.1,18.74,18.74,0,0,1-.3,8.37q-1.11,4.11-5.32,9.86l-11.57,16Z" transform="translate(-76.33 -14.4)"/><path class="cls-3" d="M1209.13,1752.55a21.92,21.92,0,0,1-10.66-6.29,39.15,39.15,0,0,1-9.86-27.91,21.9,21.9,0,0,1,4.34-11.58,21.94,21.94,0,0,1,21.67-7.66,21.9,21.9,0,0,1,10.69,6.28,39.11,39.11,0,0,1,9.86,27.91,21.91,21.91,0,0,1-4.38,11.59,21.94,21.94,0,0,1-21.66,7.66Zm16-16.39q1.56-5.58-1.58-14.45t-7.85-12.23a11,11,0,0,0-17,6q-1.56,5.58,1.57,14.45t7.85,12.23a11,11,0,0,0,17-6Z" transform="translate(-76.33 -14.4)"/><path class="cls-3" d="M1326.31,1693.47l4,7.4-34.73,18.72-3.16-5.86,9.14-27.85a23.66,23.66,0,0,0,1.43-7.59,11.53,11.53,0,0,0-1.31-5.07,6.85,6.85,0,0,0-4.94-3.85q-3.17-.55-7.47,1.77-7.2,3.87-8.39,10.86l-8.67-1.41a20.58,20.58,0,0,1,4.34-9.76,29.14,29.14,0,0,1,9.36-7.7q7.66-4.14,14.21-3a13.57,13.57,0,0,1,9.91,7.43,18.77,18.77,0,0,1,2.27,8.07c.13,2.82-.56,6.5-2.06,11l-6.13,18.77Z" transform="translate(-76.33 -14.4)"/><path class="cls-3" d="M1362.33,1615.37l31.55,43.24-8,5.86L1359.21,1628l-9.14,6.67-4.91-6.73Z" transform="translate(-76.33 -14.4)"/><path class="cls-4" d="M489,1166.62c38.08,248,252.37,437.91,511,437.91s472.91-189.92,511-437.91H489Z" transform="translate(-76.33 -14.4)"/><path class="cls-5" d="M483,1087.49a522.37,522.37,0,0,0,6,79.13h0c319.9,177.92,652.83,244.41,1022,0h0a522.37,522.37,0,0,0,6-79.13h0c0-285.54-231.48-517-517-517S483,802,483,1087.49Z" transform="translate(-76.33 -14.4)"/><path class="cls-6" d="M722.61,1320.33c4.13-19.41-15.15-25.16-29.47-20-45.69,16.39-129.62,17.94-131.47-50.37-.75-28,18.43-51.41,41.41-77.34,0,0-.51,37.4-5.84,45.54s15.51-7.13,15.77-13.22,2.54,33.06-20.62,46,21.89-5.33,24.17-13.23-3,28.75-10.16,33.59,12.2,2.29,23.9-21.37c0,0,12.47-51.9-22.63-78.1,0,0,30.78,1,31,47.57,0,0,7.5-9.79,7.13-14.62s4.07,34.2-2.56,44.89c0,0,12-10.69,17.3-15.26,0,0-2.54,31.54-7.62,40.19,0,0,63.59-61.06-37.66-108.87,0,0,33.08-5.1,58,30.52L671.51,1177s37.65,29,36.89,61.8l4.32-25.44s14.5,17.31,13.24,38.67,39.75-104.35-102.36-100.51c19.63-140.8-117.59-115.6-96.2-114.48s37,17.44,37,17.44l-25.76,1.48c32.68,2.87,57.33,43.52,57.33,43.52l-19-3.92c32.63,28.75,23.9,61,23.9,61-36.27-105.92-104-49.51-104-49.51,9.15-4.1,40.78-3.12,40.78-3.12-5.14,4.8-17.09,15.49-17.09,15.49,11.36-5.39,49.68,3.38,44.91,2.47s-15.34,5.45-15.34,5.45c46.25,5.43,43.83,36.13,43.83,36.13-22.14-37.8-75.09-31.19-75.09-31.19-24.81,9-29.49,27.93-23.89,21.39s42.59-7.77,34.49-6.38-31.3,44.11-15.83,22.54,54.15-14.92,48.05-15.35-23.58,18.61-14.89,14.21c8.21-4.17,41.95-1.13,45.57-.79-27.6,18.75-58.67,47-59.48,96.71-1,60.67,71.16,113,126.67,106.89,25.76-2.82,57.63-25.27,63.14-51.15Z" transform="translate(-76.33 -14.4)"/><path class="cls-6" d="M1413.85,1397.46c-94.33,125.72-244.58,207.07-413.85,207.07-188.65,0-353.66-101.06-443.95-252,118-59.45,125.19-113.51,352.94-5.24,270.82,128.76,404.82-23.71,504.86,50.13Z" transform="translate(-76.33 -14.4)"/><path class="cls-7" d="M1127.93,807.88a81.78,81.78,0,1,1-81.78,81.76A81.77,81.77,0,0,1,1127.93,807.88Z" transform="translate(-76.33 -14.4)"/><path class="cls-6" d="M823.34,1047.67s44.84-44.6,80.16-4.2c-1.52-12.61-5.13-23.4-11.86-31.47,0,0,32.41-3.16,46.88,26.22a134.49,134.49,0,0,0-13-36.72s19.39-.52,33.29,7.86c0,0-40.81-101.77-144.41,22.57,0,0,20.53-60.85,61.63-80.8-7.18-5.67-16.63-4-28.06,1.57,16.62-28.37,36.6-47.53,61.34-57.7-11-1-22.42-1.56-34.44-1.58,0,0,25.47-40.4,40.81-46.16,0,0-80.16,5.24-111.72,152.65-31.54-147.41-111.7-152.65-111.7-152.65C707.57,853,733,893.42,733,893.42c-12-8.06-23.21-3.13-34.44,1.58,27.46,8.22,45.5,31.25,61.36,57.7-9.37-6.63-18.72-5.43-28.07-1.57,41.09,20,61.64,80.8,61.64,80.8-103.62-124.34-144.41-22.57-144.41-22.57,13.72-11.13,33.06-11.41,33.27-7.86-7.29,12.25-10.74,24.47-13,36.72,14.48-29.38,46.89-26.22,46.89-26.22a69,69,0,0,0-11.88,31.47c35.32-40.4,80.16,4.2,80.16,4.2-114.89-14.17-111.41,142.17-111.41,142.17,5.24-25,13.29-43.21,25.47-51.4a115.08,115.08,0,0,0,1.16,39.85c8.51-25.63,17.39-50.06,29.38-64.47-.64,15.07-.59,29.82,1.87,43.5,23.73-69.26,68.32-97.59,68.32-97.59s2.19,192.36-30.17,288.2c15.19-9.09,45.89-22.38,59.26-27.33,1.71-152.37-14.64-259.82-14.64-259.82s39.35,27.28,63.09,96.54a98.75,98.75,0,0,0,1.89-43.5c11.91,17.1,22.87,36.16,29.36,64.47,2.32-14.92,2-27.72,1.16-39.85,9.91,11.13,19,25.56,25.47,51.4,0,0,3.48-156.34-111.41-142.17Z" transform="translate(-76.33 -14.4)"/><path class="cls-8" d="M1651.42,440.48c12.48,10.73,76.22,69.46,134.71,163.7,84.77,141.41,137.54,297.69,137.54,467.58,0,509.3-414.36,923.65-923.67,923.65S76.33,1581.06,76.33,1071.76h0c6-315,187.19-617.82,462.18-770,89.63-50.48,193.63-79,294.08-95.94C717.79,241.9,637.64,285.5,563.76,333,310,492.85,134.6,772.44,145.89,1071.76h0c0,471,383.15,854.1,854.11,854.1s854.11-383.15,854.11-854.1c0-183.14-62.1-354.68-162.8-502-38.43-56.22-106-122-159.13-161.24l-45.33-34.59A789.93,789.93,0,0,0,1417.34,329c-40.93-23.47-84.63-42.08-126.76-63.49-22.8-11.59-46.56-6.21-69.11-2.95a1052.78,1052.78,0,0,0-119.75,24.49c-31.15,8.28-61,21.43-92.1,31.69,27.74-26,49.67-61.5,96.71-59.26l-82.25-21.16c-35.2-9.06-69.7-19.86-100.38-40.21-.79-.52-1.88-.68-2.54-1.31-7.5-7.26-20.5-11.81-14.91-26,3.81-9.68,24.65-18.39,35.07-16.84a313.15,313.15,0,0,0,38.27,3.5c5.38.13,10.84-3,16.27-4.6,1.49-.32,2.68-4.64-.56-4.7l-29.39-2.71c86.2-14.71,168.16,7.88,253.56,26.75-10.87,8.33-20.63,14.19-28.26,22.11-7.32,7.59-17.58,17.5-17.28,26.06.44,12.48,15.34,14.88,26.6,17.27a86,86,0,0,0,21.36,2c-8.19-2.76-16.57-5.05-24.52-8.38-13.73-5.75-14.95-13-3.29-21.56,17.28-12.75,34.87-25.13,52.91-36.76,3.27-2.11,10-1.26,14,.6,17,7.82,33.87,14.18,56.18,8.64-29.23-6.45-57.71-9.17-65.64-44.06,9.33,4.58,16.36,9.83,24.12,11.33,7.34,1.42,15.45-1.09,23.6-1.92-5.89-23-5.34-23.84,13.69-25-4.14-20.76-9.63-26.27-30-32.54,9.4,0,19.14-1.52,28.13.4a106.4,106.4,0,0,1,30.53,11.82c9.7,5.6,16.86,3.67,26.06-1.1C1417.25,75.35,1467,50,1517.14,25.43c19.93-9.75,41.48-14.16,63.85-8.57,3.37.84,6.45,2.81,12.45,5.52-89.88,61.72-176.39,123.13-253,198.32,18.38-12,31.55,2.36,45.56,8.51,10.41,4.57,19.21,4.95,30.07,2.29,27.14-6.64,54.56-12.43,82.15-16.82,8.44-1.34,17.78,3,26.71,4.69,1.53.38,2,.86.54,2-3.13,2.42-6,7.63-9.44,9.53-5.83,3.25-12.37,5.31-17.93,8.92-17.8,11.57-34.63,26.44-58.58,13.78l37.3,26.44,6.68,4.64-8.17-1.65-37.26-8.33-.48,1.88c26.46,18.41,53.3,36.3,79.31,55.33C1537.39,346.93,1591,387.72,1651.42,440.48Z" transform="translate(-76.33 -14.4)"/></svg>